<svg width="360" height="28" viewBox="0 0 360 28" fill="none" xmlns="http://www.w3.org/2000/svg">
<path d="M18.3121 3.33984C16.4254 2.39062 14.5504 1.91602 12.6871 1.91602C11.2105 1.91602 9.88046 2.15625 8.69687 2.63672C7.51328 3.10547 6.4996 3.84961 5.65585 4.86914C4.82382 5.88867 4.18515 7.18945 3.73984 8.77148C3.29453 10.3535 3.07187 12.252 3.07187 14.4668C3.07187 15.5918 3.1832 16.6699 3.40585 17.7012C3.62851 18.7324 3.94492 19.6992 4.35507 20.6016C4.77695 21.4922 5.28671 22.3066 5.88437 23.0449C6.49374 23.7715 7.17929 24.3984 7.94101 24.9258C8.70273 25.4414 9.53476 25.8457 10.4371 26.1387C11.3512 26.4199 12.318 26.5605 13.3375 26.5605C14.0758 26.5605 14.7437 26.5254 15.3414 26.4551C15.9508 26.3848 16.525 26.2617 17.0641 26.0859C17.6031 25.8984 18.1363 25.6465 18.6637 25.3301C19.191 25.002 19.7535 24.5859 20.3512 24.082L21.0719 24.9082C20.3805 25.4238 19.7125 25.8574 19.068 26.209C18.4234 26.5605 17.7613 26.8477 17.0816 27.0703C16.4137 27.3047 15.7047 27.4688 14.9547 27.5625C14.2047 27.668 13.3785 27.7207 12.4762 27.7207C10.6949 27.7207 9.04257 27.3984 7.51913 26.7539C6.00742 26.1094 4.70078 25.2012 3.59921 24.0293C2.49765 22.8457 1.63632 21.4219 1.01523 19.7578C0.394135 18.082 0.0835876 16.2246 0.0835876 14.1855C0.0835876 12.0996 0.423431 10.2246 1.10312 8.56055C1.79453 6.88477 2.74374 5.46094 3.95078 4.28906C5.15781 3.11719 6.58163 2.2207 8.22226 1.59961C9.86288 0.966797 11.6383 0.650391 13.5484 0.650391C15.9625 0.650391 18.2711 1.24805 20.4742 2.44336C20.0992 4.3418 19.5191 6.10547 18.734 7.73438L18.2769 7.48828C18.4176 6.63281 18.4879 5.7832 18.4879 4.93945C18.4879 4.18945 18.4293 3.65625 18.3121 3.33984ZM45.059 0.720703C48.973 0.720703 51.9848 1.95703 54.0941 4.42969C56.2035 6.90234 57.2582 10.3242 57.2582 14.6953C57.2582 16.5469 56.9301 18.2871 56.2738 19.916C55.6176 21.5449 54.7328 22.9277 53.6195 24.0645C52.5062 25.2012 51.1937 26.0977 49.682 26.7539C48.182 27.3984 46.6059 27.7207 44.9535 27.7207C43.2191 27.7207 41.6078 27.416 40.1195 26.8066C38.6312 26.1855 37.3363 25.3066 36.2348 24.1699C35.1449 23.0332 34.2894 21.6035 33.6684 19.8809C33.0473 18.1465 32.7367 16.2246 32.7367 14.1152C32.7367 12.252 33.0648 10.4883 33.7211 8.82422C34.3891 7.16016 35.2738 5.74219 36.3754 4.57031C37.4887 3.38672 38.8012 2.44922 40.3129 1.75781C41.8246 1.06641 43.4066 0.720703 45.059 0.720703ZM35.6898 13.9395C35.6898 15.6621 35.8715 17.2441 36.2348 18.6855C36.6098 20.1152 37.1078 21.3223 37.7289 22.3066C38.35 23.291 39.0766 24.123 39.9086 24.8027C40.7523 25.4824 41.6371 25.9805 42.5629 26.2969C43.4887 26.6016 44.4496 26.7539 45.4457 26.7539C46.8871 26.7539 48.1762 26.4375 49.3129 25.8047C50.4613 25.1719 51.393 24.3105 52.1078 23.2207C52.8227 22.1191 53.3676 20.8594 53.7426 19.4414C54.1176 18.0234 54.3051 16.5 54.3051 14.8711C54.3051 12.75 54.0355 10.8398 53.4965 9.14062C52.9691 7.44141 52.2543 6.07031 51.3519 5.02734C50.4496 3.97266 49.4242 3.16992 48.2758 2.61914C47.1391 2.06836 45.932 1.79297 44.6547 1.79297C43.2133 1.79297 41.9125 2.12695 40.7523 2.79492C39.6039 3.45117 38.6664 4.3418 37.9398 5.4668C37.2133 6.5918 36.6566 7.88086 36.2699 9.33398C35.8832 10.7754 35.6898 12.3105 35.6898 13.9395ZM75.1984 3.56836V25.4531C75.8312 25.5352 76.4406 25.5996 77.0266 25.6465C77.6125 25.6816 78.1867 25.6992 78.7492 25.6992C80.7297 25.6992 82.5051 25.4473 84.0754 24.9434C85.6457 24.4277 86.9758 23.6543 88.0656 22.623C89.1555 21.5801 89.9875 20.2852 90.5617 18.7383C91.1477 17.1797 91.4406 15.3516 91.4406 13.2539C91.4289 11.8711 91.2531 10.6465 90.9133 9.58008C90.5734 8.51367 90.0988 7.58789 89.4894 6.80273C88.8801 6.00586 88.1594 5.34375 87.3273 4.81641C86.507 4.27734 85.6105 3.84375 84.6379 3.51562C83.6769 3.17578 82.6574 2.93555 81.5793 2.79492C80.5129 2.6543 79.4289 2.58398 78.3273 2.58398C77.8 2.58398 77.2727 2.60156 76.7453 2.63672C76.218 2.67188 75.6789 2.71875 75.1281 2.77734C75.1516 2.94141 75.1691 3.09375 75.1809 3.23438C75.1926 3.36328 75.1984 3.47461 75.1984 3.56836ZM69.3273 2.19727C70.3469 2.06836 71.2609 1.95703 72.0695 1.86328C72.8781 1.75781 73.6633 1.66992 74.425 1.59961C75.1867 1.5293 75.9719 1.47656 76.7805 1.44141C77.5891 1.40625 78.5031 1.38867 79.5227 1.38867C80.4016 1.38867 81.2043 1.41211 81.9309 1.45898C82.6574 1.50586 83.343 1.58789 83.9875 1.70508C84.6437 1.81055 85.2824 1.95703 85.9035 2.14453C86.5363 2.32031 87.1984 2.53711 87.8898 2.79492C88.8156 3.14648 89.6652 3.62109 90.4387 4.21875C91.2238 4.80469 91.8977 5.52539 92.4602 6.38086C93.0227 7.23633 93.4562 8.23242 93.7609 9.36914C94.0773 10.5059 94.2355 11.8008 94.2355 13.2539C94.2238 14.9766 94.0012 16.5117 93.5676 17.8594C93.134 19.207 92.5305 20.3906 91.757 21.4102C90.9836 22.4297 90.0637 23.2969 88.9973 24.0117C87.9426 24.7266 86.7941 25.3066 85.5519 25.752C84.3098 26.1973 82.9973 26.5195 81.6144 26.7188C80.2316 26.918 78.8312 27.0176 77.4133 27.0176C77.2961 27.0176 76.9094 27.0176 76.2531 27.0176C75.6086 27.0293 74.9172 27.0645 74.1789 27.123C73.4406 27.1816 72.7961 27.2461 72.2453 27.3164L72.1398 27.1406C72.3742 26.8008 72.4914 26.1797 72.4914 25.2773V6.76758C72.4914 5.99414 72.4562 5.34961 72.3859 4.83398C72.3156 4.30664 72.1867 3.88477 71.9992 3.56836C71.8117 3.25195 71.548 3.0293 71.2082 2.90039C70.8684 2.75977 70.5461 2.68945 70.2414 2.68945C69.9367 2.68945 69.7434 2.68945 69.6613 2.68945C69.5793 2.68945 69.4914 2.69531 69.3977 2.70703L69.3273 2.19727ZM112.176 25.9277L118.363 25.7344C119.219 25.7109 119.939 25.6113 120.525 25.4355C121.111 25.2598 121.615 25.0137 122.037 24.6973C122.459 24.3691 122.828 23.9707 123.145 23.502C123.461 23.0215 123.777 22.4707 124.094 21.8496L124.604 22.0605L122.863 26.7539L122.582 27H109.803C109.58 26.5195 109.469 25.9453 109.469 25.2773V6.5918C109.469 5.81836 109.434 5.18555 109.363 4.69336C109.293 4.18945 109.164 3.79102 108.977 3.49805C108.789 3.19336 108.525 2.98242 108.186 2.86523C107.857 2.74805 107.43 2.68945 106.902 2.68945C106.82 2.68945 106.732 2.68945 106.639 2.68945C106.557 2.68945 106.469 2.69531 106.375 2.70703L106.305 2.19727C109.645 1.66992 113.324 1.40625 117.344 1.40625C119.395 1.40625 121.545 1.47656 123.795 1.61719L123.918 1.91602L122.248 6.29297L121.686 6.11719C121.779 5.67188 121.85 5.26172 121.896 4.88672C121.943 4.51172 121.967 4.14844 121.967 3.79688C121.967 3.43359 121.92 3.09375 121.826 2.77734C120.947 2.69531 120.08 2.63672 119.225 2.60156C118.381 2.55469 117.537 2.53125 116.693 2.53125C115.158 2.53125 113.652 2.60156 112.176 2.74219V12.6738L121.791 12.1465L121.967 12.3398L121.141 13.7812C120.613 13.7578 120.08 13.7402 119.541 13.7285C119.002 13.7168 118.451 13.7109 117.889 13.7109C116.975 13.7109 116.043 13.7285 115.094 13.7637C114.145 13.7988 113.172 13.8457 112.176 13.9043V25.9277ZM142.052 15.7676H133.772V15.1523C134.839 14.6719 135.8 14.4316 136.655 14.4316H144.934V15.0469C143.915 15.5273 142.954 15.7676 142.052 15.7676ZM157.953 1.51172L165.037 12.498C168.494 6.97852 170.246 4.16602 170.293 4.06055C170.574 3.4043 170.515 2.91797 170.117 2.60156C169.73 2.28516 169.021 2.08008 167.99 1.98633L167.92 1.65234C170.029 1.45312 171.599 1.51172 172.63 1.82812C172.724 1.875 172.783 1.94531 172.806 2.03906C172.83 2.12109 172.824 2.19727 172.789 2.26758C172.543 2.75977 172.209 3.35742 171.787 4.06055C171.365 4.76367 169.343 7.92188 165.722 13.5352L172.384 23.7656C172.689 24.2227 173.005 24.6211 173.334 24.9609C173.662 25.2891 174.019 25.5645 174.406 25.7871C174.804 26.0098 175.144 26.1797 175.425 26.2969C175.707 26.4141 176.087 26.5547 176.568 26.7188V27.0703C174.201 26.9297 172.449 27.0234 171.312 27.3516L171.048 27.2109C171.095 26.7422 170.902 26.1797 170.468 25.5234L163.56 14.9062L156.793 24.873C156.464 25.3418 156.488 25.7227 156.863 26.0156C157.25 26.2969 158.093 26.5664 159.394 26.8242L159.324 27.1406C157.273 26.9883 155.603 26.9414 154.314 27C154.232 26.918 154.162 26.8008 154.103 26.6484L162.804 13.7461L157.478 5.53711C157.056 4.93945 156.693 4.48828 156.388 4.18359C156.095 3.86719 155.802 3.64453 155.509 3.51562C155.228 3.375 154.923 3.30469 154.595 3.30469C154.279 3.29297 153.886 3.29297 153.418 3.30469V2.98828C153.851 2.76562 154.255 2.56641 154.63 2.39062C155.017 2.20312 155.392 2.04492 155.755 1.91602C156.119 1.78711 156.476 1.6875 156.828 1.61719C157.191 1.54688 157.566 1.51172 157.953 1.51172ZM192.416 15.7676H184.137V15.1523C185.204 14.6719 186.164 14.4316 187.02 14.4316H195.299V15.0469C194.28 15.5273 193.319 15.7676 192.416 15.7676ZM211.798 13.3242V12.7441C212.97 12.6152 213.972 12.3809 214.804 12.041C215.636 11.7012 216.321 11.2676 216.861 10.7402C217.4 10.2129 217.792 9.5918 218.038 8.87695C218.296 8.16211 218.425 7.36523 218.425 6.48633C218.39 5.7832 218.284 5.19141 218.109 4.71094C217.945 4.23047 217.663 3.84375 217.265 3.55078C216.866 3.24609 216.333 3.0293 215.665 2.90039C215.009 2.75977 214.171 2.68945 213.152 2.68945C212.777 2.68945 212.378 2.70117 211.956 2.72461C211.546 2.73633 211.101 2.75391 210.62 2.77734C210.691 3.05859 210.726 3.35742 210.726 3.67383V23.8359C210.726 24.3164 210.767 24.7266 210.849 25.0664C210.943 25.4062 211.095 25.6934 211.306 25.9277C211.517 26.1621 211.798 26.3555 212.15 26.5078C212.513 26.6484 212.964 26.7656 213.503 26.8594L213.345 27.2812C212.63 27.1875 212.015 27.1172 211.499 27.0703C210.984 27.0234 210.556 27 210.216 27C209.9 27 209.536 27.0234 209.126 27.0703C208.716 27.1172 208.265 27.1875 207.773 27.2812L207.667 27.1055C207.902 26.7656 208.019 26.1445 208.019 25.2422V6.76758C208.019 5.99414 207.984 5.34961 207.913 4.83398C207.843 4.30664 207.714 3.88477 207.527 3.56836C207.339 3.25195 207.075 3.0293 206.736 2.90039C206.396 2.75977 205.792 2.69531 204.925 2.70703L204.855 2.19727C205.64 2.0918 206.331 1.99805 206.929 1.91602C207.538 1.83398 208.112 1.76367 208.652 1.70508C209.202 1.63477 209.741 1.57617 210.269 1.5293C210.808 1.48242 211.323 1.44727 211.816 1.42383C212.308 1.38867 212.7 1.36523 212.993 1.35352C213.298 1.3418 213.585 1.33594 213.855 1.33594C214.921 1.33594 215.905 1.41797 216.808 1.58203C217.722 1.73438 218.507 2.00977 219.163 2.4082C219.831 2.79492 220.347 3.32227 220.71 3.99023C221.085 4.6582 221.273 5.50195 221.273 6.52148C221.273 7.2832 221.103 8.00391 220.763 8.68359C220.435 9.36328 219.984 9.98438 219.409 10.5469C218.847 11.1094 218.185 11.6074 217.423 12.041C216.673 12.4629 215.87 12.8027 215.015 13.0605V13.2539L222.169 23.4668C222.79 24.3691 223.593 25.0664 224.577 25.5586C225.538 25.9688 226.118 26.209 226.318 26.2793C226.529 26.3496 226.769 26.4316 227.038 26.5254V26.8594C224.964 26.8594 223.224 27.0762 221.818 27.5098L221.554 27.3516C221.554 27.1875 221.454 26.9473 221.255 26.6309C221.056 26.3027 220.81 25.9395 220.517 25.541C220.236 25.1309 219.726 24.3984 218.987 23.3438C218.249 22.2773 215.853 18.9375 211.798 13.3242ZM246.631 2.63672C247.029 2.39062 247.486 1.92188 248.002 1.23047H248.178L257.863 24.5566C258.297 25.5996 259.182 26.332 260.518 26.7539V27.0703C259.756 26.9883 258.842 26.9707 257.775 27.0176C256.709 27.0762 255.766 27.1758 254.945 27.3164L254.805 27.1406C255.039 26.8359 255.092 26.3262 254.963 25.6113C254.846 24.8965 254.488 23.8125 253.891 22.3594L250.99 15.082C247.545 15.0234 244.697 15.0352 242.447 15.1172L238.387 24.5566C238.141 25.0957 238.229 25.5469 238.65 25.9102C239.084 26.2734 239.928 26.5781 241.182 26.8242L241.111 27.1406C239.072 26.9883 237.408 26.9414 236.119 27C236.049 26.9297 235.973 26.8125 235.891 26.6484L246.631 2.63672ZM242.922 14.0801C244.621 14.127 247.164 14.127 250.551 14.0801L246.877 4.9043L242.922 14.0801ZM291.694 3.5332V23.8359C291.694 24.7852 291.887 25.4766 292.274 25.9102C292.661 26.3438 293.393 26.6602 294.471 26.8594L294.331 27.2812C293.03 27.1055 292.04 27.0117 291.36 27C290.68 26.9883 289.813 27.082 288.759 27.2812L288.636 27.1055C288.882 26.7656 289.005 26.1445 289.005 25.2422V13.6758C283.837 13.5586 279.348 13.5586 275.54 13.6758V25.207C275.54 26.0391 275.721 26.6367 276.085 27L275.979 27.1758C274.444 26.9414 272.956 26.9648 271.514 27.2461L271.391 27.0703C271.989 26.543 272.376 26.0684 272.552 25.6465C272.739 25.2246 272.833 24.6094 272.833 23.8008V6.76758C272.833 5.11523 272.634 4.00195 272.235 3.42773C271.848 2.85352 271.016 2.61328 269.739 2.70703L269.669 2.37305C271.602 1.79883 273.436 1.51172 275.171 1.51172C275.417 2.13281 275.54 2.80664 275.54 3.5332V12.4277C280.005 12.6035 284.493 12.6035 289.005 12.4277V6.76758C289.005 5.11523 288.805 4.00195 288.407 3.42773C288.009 2.85352 287.177 2.61328 285.911 2.70703L285.841 2.37305C287.774 1.79883 289.608 1.51172 291.343 1.51172C291.577 2.15625 291.694 2.83008 291.694 3.5332ZM311.515 3.5332V19.582C311.515 20.8711 311.638 21.9492 311.884 22.8164C312.13 23.6719 312.47 24.3574 312.904 24.873C313.349 25.3887 313.877 25.7578 314.486 25.9805C315.107 26.1914 315.787 26.2969 316.525 26.2969C317.228 26.2969 317.955 26.2031 318.705 26.0156C319.466 25.8164 320.222 25.5469 320.972 25.207C321.734 24.8555 322.472 24.4453 323.187 23.9766C323.914 23.4961 324.593 22.9805 325.226 22.4297V6.76758C325.226 5.99414 325.191 5.34961 325.121 4.83398C325.05 4.30664 324.921 3.88477 324.734 3.56836C324.546 3.25195 324.283 3.0293 323.943 2.90039C323.603 2.75977 323.24 2.68945 322.853 2.68945C322.466 2.68945 322.226 2.69531 322.132 2.70703L322.062 2.37305C323.972 1.79883 325.806 1.51172 327.564 1.51172C327.81 2.13281 327.933 2.80664 327.933 3.5332V23.8359C327.933 24.3164 327.974 24.7266 328.056 25.0664C328.15 25.4062 328.302 25.6934 328.513 25.9277C328.724 26.1621 329.005 26.3555 329.357 26.5078C329.72 26.6484 330.171 26.7656 330.711 26.8594L330.552 27.2812C329.849 27.1875 329.24 27.1172 328.724 27.0703C328.209 27.0234 327.775 27 327.423 27C327.095 27 326.726 27.0234 326.316 27.0703C325.918 27.1172 325.472 27.1875 324.98 27.2812L324.875 27.1055C325.109 26.7656 325.226 26.1445 325.226 25.2422V23.8008C323.293 25.1836 321.541 26.1855 319.97 26.8066C318.412 27.416 316.953 27.7207 315.593 27.7207C314.785 27.7207 313.976 27.627 313.168 27.4395C312.359 27.252 311.632 26.9297 310.988 26.4727C310.343 26.0156 309.816 25.4121 309.406 24.6621C309.007 23.9004 308.808 22.9512 308.808 21.8145V6.76758C308.808 5.99414 308.773 5.34961 308.703 4.83398C308.632 4.30664 308.504 3.88477 308.316 3.56836C308.129 3.25195 307.865 3.0293 307.525 2.90039C307.185 2.75977 306.822 2.68945 306.435 2.68945C306.048 2.68945 305.808 2.69531 305.714 2.70703L305.644 2.37305C307.554 1.79883 309.394 1.51172 311.164 1.51172C311.398 2.17969 311.515 2.85352 311.515 3.5332ZM347.754 25.9277L353.59 25.7344C354.446 25.7109 355.172 25.6172 355.77 25.4531C356.368 25.2773 356.883 25.0078 357.317 24.6445C357.75 24.2695 358.102 23.8828 358.371 23.4844C358.653 23.0742 358.963 22.5293 359.303 21.8496L359.813 22.0605L358.09 26.7539L357.791 27H345.381C345.159 26.5078 345.047 25.9336 345.047 25.2773V6.76758C345.047 5.11523 344.848 4.00195 344.45 3.42773C344.063 2.85352 343.231 2.61328 341.954 2.70703L341.883 2.37305C343.817 1.79883 345.657 1.51172 347.403 1.51172C347.637 2.15625 347.754 2.83008 347.754 3.5332V25.9277Z" fill="#EC1CE4"/>
</svg>
