<svg width="480" height="37" viewBox="0 0 480 37" fill="none" xmlns="http://www.w3.org/2000/svg">
<path d="M24.5828 4.45312C22.0672 3.1875 19.5672 2.55469 17.0828 2.55469C15.1141 2.55469 13.3406 2.875 11.7625 3.51562C10.1844 4.14062 8.83281 5.13281 7.70781 6.49219C6.59843 7.85156 5.74687 9.58594 5.15312 11.6953C4.55937 13.8047 4.2625 16.3359 4.2625 19.2891C4.2625 20.7891 4.41093 22.2266 4.70781 23.6016C5.00468 24.9766 5.42656 26.2656 5.97343 27.4688C6.53593 28.6562 7.21562 29.7422 8.0125 30.7266C8.825 31.6953 9.73906 32.5312 10.7547 33.2344C11.7703 33.9219 12.8797 34.4609 14.0828 34.8516C15.3016 35.2266 16.5906 35.4141 17.95 35.4141C18.9344 35.4141 19.825 35.3672 20.6219 35.2734C21.4344 35.1797 22.2 35.0156 22.9187 34.7812C23.6375 34.5312 24.3484 34.1953 25.0516 33.7734C25.7547 33.3359 26.5047 32.7812 27.3016 32.1094L28.2625 33.2109C27.3406 33.8984 26.45 34.4766 25.5906 34.9453C24.7312 35.4141 23.8484 35.7969 22.9422 36.0938C22.0516 36.4062 21.1062 36.625 20.1062 36.75C19.1062 36.8906 18.0047 36.9609 16.8016 36.9609C14.4266 36.9609 12.2234 36.5312 10.1922 35.6719C8.17656 34.8125 6.43437 33.6016 4.96562 32.0391C3.49687 30.4609 2.34843 28.5625 1.52031 26.3438C0.692184 24.1094 0.278122 21.6328 0.278122 18.9141C0.278122 16.1328 0.731247 13.6328 1.6375 11.4141C2.55937 9.17969 3.825 7.28125 5.43437 5.71875C7.04375 4.15625 8.94218 2.96094 11.1297 2.13281C13.3172 1.28906 15.6844 0.867188 18.2312 0.867188C21.45 0.867188 24.5281 1.66406 27.4656 3.25781C26.9656 5.78906 26.1922 8.14062 25.1453 10.3125L24.5359 9.98438C24.7234 8.84375 24.8172 7.71094 24.8172 6.58594C24.8172 5.58594 24.7391 4.875 24.5828 4.45312ZM60.2453 0.960938C65.4641 0.960938 69.4797 2.60938 72.2922 5.90625C75.1047 9.20312 76.5109 13.7656 76.5109 19.5938C76.5109 22.0625 76.0734 24.3828 75.1984 26.5547C74.3234 28.7266 73.1437 30.5703 71.6594 32.0859C70.175 33.6016 68.425 34.7969 66.4094 35.6719C64.4094 36.5312 62.3078 36.9609 60.1047 36.9609C57.7922 36.9609 55.6437 36.5547 53.6594 35.7422C51.675 34.9141 49.9484 33.7422 48.4797 32.2266C47.0266 30.7109 45.8859 28.8047 45.0578 26.5078C44.2297 24.1953 43.8156 21.6328 43.8156 18.8203C43.8156 16.3359 44.2531 13.9844 45.1281 11.7656C46.0187 9.54688 47.1984 7.65625 48.6672 6.09375C50.1516 4.51562 51.9016 3.26562 53.9172 2.34375C55.9328 1.42188 58.0422 0.960938 60.2453 0.960938ZM47.7531 18.5859C47.7531 20.8828 47.9953 22.9922 48.4797 24.9141C48.9797 26.8203 49.6437 28.4297 50.4719 29.7422C51.3 31.0547 52.2687 32.1641 53.3781 33.0703C54.5031 33.9766 55.6828 34.6406 56.9172 35.0625C58.1516 35.4688 59.4328 35.6719 60.7609 35.6719C62.6828 35.6719 64.4016 35.25 65.9172 34.4062C67.4484 33.5625 68.6906 32.4141 69.6437 30.9609C70.5969 29.4922 71.3234 27.8125 71.8234 25.9219C72.3234 24.0312 72.5734 22 72.5734 19.8281C72.5734 17 72.2141 14.4531 71.4953 12.1875C70.7922 9.92188 69.8391 8.09375 68.6359 6.70312C67.4328 5.29688 66.0656 4.22656 64.5344 3.49219C63.0187 2.75781 61.4094 2.39062 59.7062 2.39062C57.7844 2.39062 56.05 2.83594 54.5031 3.72656C52.9719 4.60156 51.7219 5.78906 50.7531 7.28906C49.7844 8.78906 49.0422 10.5078 48.5266 12.4453C48.0109 14.3672 47.7531 16.4141 47.7531 18.5859ZM100.431 4.75781V33.9375C101.275 34.0469 102.087 34.1328 102.869 34.1953C103.65 34.2422 104.416 34.2656 105.166 34.2656C107.806 34.2656 110.173 33.9297 112.267 33.2578C114.361 32.5703 116.134 31.5391 117.587 30.1641C119.041 28.7734 120.15 27.0469 120.916 24.9844C121.697 22.9062 122.087 20.4688 122.087 17.6719C122.072 15.8281 121.837 14.1953 121.384 12.7734C120.931 11.3516 120.298 10.1172 119.486 9.07031C118.673 8.00781 117.712 7.125 116.603 6.42188C115.509 5.70312 114.314 5.125 113.017 4.6875C111.736 4.23438 110.377 3.91406 108.939 3.72656C107.517 3.53906 106.072 3.44531 104.603 3.44531C103.9 3.44531 103.197 3.46875 102.494 3.51562C101.791 3.5625 101.072 3.625 100.337 3.70312C100.369 3.92188 100.392 4.125 100.408 4.3125C100.423 4.48438 100.431 4.63281 100.431 4.75781ZM92.6031 2.92969C93.9625 2.75781 95.1812 2.60938 96.2594 2.48438C97.3375 2.34375 98.3844 2.22656 99.4 2.13281C100.416 2.03906 101.462 1.96875 102.541 1.92188C103.619 1.875 104.837 1.85156 106.197 1.85156C107.369 1.85156 108.439 1.88281 109.408 1.94531C110.377 2.00781 111.291 2.11719 112.15 2.27344C113.025 2.41406 113.877 2.60938 114.705 2.85938C115.548 3.09375 116.431 3.38281 117.353 3.72656C118.587 4.19531 119.72 4.82812 120.752 5.625C121.798 6.40625 122.697 7.36719 123.447 8.50781C124.197 9.64844 124.775 10.9766 125.181 12.4922C125.603 14.0078 125.814 15.7344 125.814 17.6719C125.798 19.9688 125.502 22.0156 124.923 23.8125C124.345 25.6094 123.541 27.1875 122.509 28.5469C121.478 29.9062 120.252 31.0625 118.83 32.0156C117.423 32.9688 115.892 33.7422 114.236 34.3359C112.58 34.9297 110.83 35.3594 108.986 35.625C107.142 35.8906 105.275 36.0234 103.384 36.0234C103.228 36.0234 102.712 36.0234 101.837 36.0234C100.978 36.0391 100.056 36.0859 99.0719 36.1641C98.0875 36.2422 97.2281 36.3281 96.4937 36.4219L96.3531 36.1875C96.6656 35.7344 96.8219 34.9062 96.8219 33.7031V9.02344C96.8219 7.99219 96.775 7.13281 96.6812 6.44531C96.5875 5.74219 96.4156 5.17969 96.1656 4.75781C95.9156 4.33594 95.5641 4.03906 95.1109 3.86719C94.6578 3.67969 94.2281 3.58594 93.8219 3.58594C93.4156 3.58594 93.1578 3.58594 93.0484 3.58594C92.9391 3.58594 92.8219 3.59375 92.6969 3.60938L92.6031 2.92969ZM149.734 34.5703L157.984 34.3125C159.125 34.2812 160.086 34.1484 160.867 33.9141C161.648 33.6797 162.32 33.3516 162.883 32.9297C163.445 32.4922 163.938 31.9609 164.359 31.3359C164.781 30.6953 165.203 29.9609 165.625 29.1328L166.305 29.4141L163.984 35.6719L163.609 36H146.57C146.273 35.3594 146.125 34.5938 146.125 33.7031V8.78906C146.125 7.75781 146.078 6.91406 145.984 6.25781C145.891 5.58594 145.719 5.05469 145.469 4.66406C145.219 4.25781 144.867 3.97656 144.414 3.82031C143.977 3.66406 143.406 3.58594 142.703 3.58594C142.594 3.58594 142.477 3.58594 142.352 3.58594C142.242 3.58594 142.125 3.59375 142 3.60938L141.906 2.92969C146.359 2.22656 151.266 1.875 156.625 1.875C159.359 1.875 162.227 1.96875 165.227 2.15625L165.391 2.55469L163.164 8.39062L162.414 8.15625C162.539 7.5625 162.633 7.01562 162.695 6.51562C162.758 6.01562 162.789 5.53125 162.789 5.0625C162.789 4.57812 162.727 4.125 162.602 3.70312C161.43 3.59375 160.273 3.51562 159.133 3.46875C158.008 3.40625 156.883 3.375 155.758 3.375C153.711 3.375 151.703 3.46875 149.734 3.65625V16.8984L162.555 16.1953L162.789 16.4531L161.688 18.375C160.984 18.3438 160.273 18.3203 159.555 18.3047C158.836 18.2891 158.102 18.2812 157.352 18.2812C156.133 18.2812 154.891 18.3047 153.625 18.3516C152.359 18.3984 151.062 18.4609 149.734 18.5391V34.5703ZM189.569 21.0234H178.53V20.2031C179.952 19.5625 181.233 19.2422 182.373 19.2422H193.412V20.0625C192.053 20.7031 190.772 21.0234 189.569 21.0234ZM210.77 2.01562L220.216 16.6641C224.825 9.30469 227.161 5.55469 227.223 5.41406C227.598 4.53906 227.52 3.89062 226.989 3.46875C226.473 3.04688 225.528 2.77344 224.153 2.64844L224.059 2.20312C226.872 1.9375 228.966 2.01562 230.341 2.4375C230.466 2.5 230.544 2.59375 230.575 2.71875C230.606 2.82812 230.598 2.92969 230.552 3.02344C230.223 3.67969 229.778 4.47656 229.216 5.41406C228.653 6.35156 225.958 10.5625 221.13 18.0469L230.012 31.6875C230.419 32.2969 230.841 32.8281 231.278 33.2812C231.716 33.7188 232.192 34.0859 232.708 34.3828C233.239 34.6797 233.692 34.9062 234.067 35.0625C234.442 35.2188 234.95 35.4062 235.591 35.625V36.0938C232.434 35.9062 230.098 36.0312 228.583 36.4688L228.231 36.2812C228.294 35.6562 228.036 34.9062 227.458 34.0312L218.247 19.875L209.223 33.1641C208.786 33.7891 208.817 34.2969 209.317 34.6875C209.833 35.0625 210.958 35.4219 212.692 35.7656L212.598 36.1875C209.864 35.9844 207.637 35.9219 205.919 36C205.809 35.8906 205.716 35.7344 205.637 35.5312L217.239 18.3281L210.137 7.38281C209.575 6.58594 209.091 5.98438 208.684 5.57812C208.294 5.15625 207.903 4.85938 207.512 4.6875C207.137 4.5 206.731 4.40625 206.294 4.40625C205.872 4.39062 205.348 4.39062 204.723 4.40625V3.98438C205.302 3.6875 205.841 3.42188 206.341 3.1875C206.856 2.9375 207.356 2.72656 207.841 2.55469C208.325 2.38281 208.802 2.25 209.27 2.15625C209.755 2.0625 210.255 2.01562 210.77 2.01562ZM256.722 21.0234H245.683V20.2031C247.105 19.5625 248.386 19.2422 249.527 19.2422H260.566V20.0625C259.206 20.7031 257.925 21.0234 256.722 21.0234ZM282.564 17.7656V16.9922C284.127 16.8203 285.463 16.5078 286.572 16.0547C287.681 15.6016 288.595 15.0234 289.314 14.3203C290.033 13.6172 290.556 12.7891 290.884 11.8359C291.228 10.8828 291.4 9.82031 291.4 8.64844C291.353 7.71094 291.213 6.92188 290.978 6.28125C290.759 5.64062 290.384 5.125 289.853 4.73438C289.322 4.32812 288.611 4.03906 287.72 3.86719C286.845 3.67969 285.728 3.58594 284.369 3.58594C283.869 3.58594 283.338 3.60156 282.775 3.63281C282.228 3.64844 281.634 3.67188 280.994 3.70312C281.088 4.07812 281.134 4.47656 281.134 4.89844V31.7812C281.134 32.4219 281.189 32.9688 281.298 33.4219C281.423 33.875 281.627 34.2578 281.908 34.5703C282.189 34.8828 282.564 35.1406 283.033 35.3438C283.517 35.5312 284.119 35.6875 284.838 35.8125L284.627 36.375C283.673 36.25 282.853 36.1562 282.166 36.0938C281.478 36.0312 280.908 36 280.455 36C280.033 36 279.548 36.0312 279.002 36.0938C278.455 36.1562 277.853 36.25 277.197 36.375L277.056 36.1406C277.369 35.6875 277.525 34.8594 277.525 33.6562V9.02344C277.525 7.99219 277.478 7.13281 277.384 6.44531C277.291 5.74219 277.119 5.17969 276.869 4.75781C276.619 4.33594 276.267 4.03906 275.814 3.86719C275.361 3.67969 274.556 3.59375 273.4 3.60938L273.306 2.92969C274.353 2.78906 275.275 2.66406 276.072 2.55469C276.884 2.44531 277.65 2.35156 278.369 2.27344C279.103 2.17969 279.822 2.10156 280.525 2.03906C281.244 1.97656 281.931 1.92969 282.588 1.89844C283.244 1.85156 283.767 1.82031 284.158 1.80469C284.564 1.78906 284.947 1.78125 285.306 1.78125C286.728 1.78125 288.041 1.89062 289.244 2.10938C290.463 2.3125 291.509 2.67969 292.384 3.21094C293.275 3.72656 293.963 4.42969 294.447 5.32031C294.947 6.21094 295.197 7.33594 295.197 8.69531C295.197 9.71094 294.97 10.6719 294.517 11.5781C294.08 12.4844 293.478 13.3125 292.713 14.0625C291.963 14.8125 291.08 15.4766 290.064 16.0547C289.064 16.6172 287.994 17.0703 286.853 17.4141V17.6719L296.392 31.2891C297.22 32.4922 298.291 33.4219 299.603 34.0781C300.884 34.625 301.658 34.9453 301.923 35.0391C302.205 35.1328 302.525 35.2422 302.884 35.3672V35.8125C300.119 35.8125 297.798 36.1016 295.923 36.6797L295.572 36.4688C295.572 36.25 295.439 35.9297 295.173 35.5078C294.908 35.0703 294.58 34.5859 294.189 34.0547C293.814 33.5078 293.134 32.5312 292.15 31.125C291.166 29.7031 287.97 25.25 282.564 17.7656ZM329.008 3.51562C329.539 3.1875 330.148 2.5625 330.836 1.64062H331.07L343.984 32.7422C344.562 34.1328 345.742 35.1094 347.523 35.6719V36.0938C346.508 35.9844 345.289 35.9609 343.867 36.0234C342.445 36.1016 341.188 36.2344 340.094 36.4219L339.906 36.1875C340.219 35.7812 340.289 35.1016 340.117 34.1484C339.961 33.1953 339.484 31.75 338.688 29.8125L334.82 20.1094C330.227 20.0312 326.43 20.0469 323.43 20.1562L318.016 32.7422C317.688 33.4609 317.805 34.0625 318.367 34.5469C318.945 35.0312 320.07 35.4375 321.742 35.7656L321.648 36.1875C318.93 35.9844 316.711 35.9219 314.992 36C314.898 35.9062 314.797 35.75 314.688 35.5312L329.008 3.51562ZM324.062 18.7734C326.328 18.8359 329.719 18.8359 334.234 18.7734L329.336 6.53906L324.062 18.7734ZM389.092 4.71094V31.7812C389.092 33.0469 389.35 33.9688 389.866 34.5469C390.381 35.125 391.358 35.5469 392.795 35.8125L392.608 36.375C390.873 36.1406 389.553 36.0156 388.647 36C387.741 35.9844 386.584 36.1094 385.178 36.375L385.014 36.1406C385.342 35.6875 385.506 34.8594 385.506 33.6562V18.2344C378.616 18.0781 372.631 18.0781 367.553 18.2344V33.6094C367.553 34.7188 367.795 35.5156 368.28 36L368.139 36.2344C366.092 35.9219 364.108 35.9531 362.186 36.3281L362.022 36.0938C362.819 35.3906 363.334 34.7578 363.569 34.1953C363.819 33.6328 363.944 32.8125 363.944 31.7344V9.02344C363.944 6.82031 363.678 5.33594 363.147 4.57031C362.631 3.80469 361.522 3.48438 359.819 3.60938L359.725 3.16406C362.303 2.39844 364.748 2.01562 367.061 2.01562C367.389 2.84375 367.553 3.74219 367.553 4.71094V16.5703C373.506 16.8047 379.491 16.8047 385.506 16.5703V9.02344C385.506 6.82031 385.241 5.33594 384.709 4.57031C384.178 3.80469 383.069 3.48438 381.381 3.60938L381.287 3.16406C383.866 2.39844 386.311 2.01562 388.623 2.01562C388.936 2.875 389.092 3.77344 389.092 4.71094ZM415.52 4.71094V26.1094C415.52 27.8281 415.684 29.2656 416.013 30.4219C416.341 31.5625 416.794 32.4766 417.372 33.1641C417.966 33.8516 418.669 34.3438 419.481 34.6406C420.309 34.9219 421.216 35.0625 422.2 35.0625C423.138 35.0625 424.106 34.9375 425.106 34.6875C426.122 34.4219 427.13 34.0625 428.13 33.6094C429.145 33.1406 430.13 32.5938 431.083 31.9688C432.052 31.3281 432.958 30.6406 433.802 29.9062V9.02344C433.802 7.99219 433.755 7.13281 433.661 6.44531C433.567 5.74219 433.395 5.17969 433.145 4.75781C432.895 4.33594 432.544 4.03906 432.091 3.86719C431.638 3.67969 431.153 3.58594 430.638 3.58594C430.122 3.58594 429.802 3.59375 429.677 3.60938L429.583 3.16406C432.13 2.39844 434.575 2.01562 436.919 2.01562C437.247 2.84375 437.411 3.74219 437.411 4.71094V31.7812C437.411 32.4219 437.466 32.9688 437.575 33.4219C437.7 33.875 437.903 34.2578 438.184 34.5703C438.466 34.8828 438.841 35.1406 439.309 35.3438C439.794 35.5312 440.395 35.6875 441.114 35.8125L440.903 36.375C439.966 36.25 439.153 36.1562 438.466 36.0938C437.778 36.0312 437.2 36 436.731 36C436.294 36 435.802 36.0312 435.255 36.0938C434.723 36.1562 434.13 36.25 433.473 36.375L433.333 36.1406C433.645 35.6875 433.802 34.8594 433.802 33.6562V31.7344C431.223 33.5781 428.888 34.9141 426.794 35.7422C424.716 36.5547 422.77 36.9609 420.958 36.9609C419.88 36.9609 418.802 36.8359 417.723 36.5859C416.645 36.3359 415.677 35.9062 414.817 35.2969C413.958 34.6875 413.255 33.8828 412.708 32.8828C412.177 31.8672 411.911 30.6016 411.911 29.0859V9.02344C411.911 7.99219 411.864 7.13281 411.77 6.44531C411.677 5.74219 411.505 5.17969 411.255 4.75781C411.005 4.33594 410.653 4.03906 410.2 3.86719C409.747 3.67969 409.263 3.58594 408.747 3.58594C408.231 3.58594 407.911 3.59375 407.786 3.60938L407.692 3.16406C410.239 2.39844 412.692 2.01562 415.052 2.01562C415.364 2.90625 415.52 3.80469 415.52 4.71094ZM463.839 34.5703L471.62 34.3125C472.761 34.2812 473.73 34.1562 474.527 33.9375C475.323 33.7031 476.011 33.3438 476.589 32.8594C477.167 32.3594 477.636 31.8438 477.995 31.3125C478.37 30.7656 478.784 30.0391 479.237 29.1328L479.917 29.4141L477.62 35.6719L477.222 36H460.675C460.378 35.3438 460.23 34.5781 460.23 33.7031V9.02344C460.23 6.82031 459.964 5.33594 459.433 4.57031C458.917 3.80469 457.808 3.48438 456.105 3.60938L456.011 3.16406C458.589 2.39844 461.042 2.01562 463.37 2.01562C463.683 2.875 463.839 3.77344 463.839 4.71094V34.5703Z" fill="#EC1CE4"/>
</svg>
