<svg width="400" height="31" viewBox="0 0 400 31" fill="none" xmlns="http://www.w3.org/2000/svg">
<path d="M20.4023 3.71094C18.306 2.65625 16.2227 2.12891 14.1523 2.12891C12.5117 2.12891 11.0339 2.39583 9.71875 2.92969C8.40365 3.45052 7.27734 4.27734 6.33984 5.41016C5.41536 6.54297 4.70573 7.98828 4.21094 9.74609C3.71615 11.5039 3.46875 13.6133 3.46875 16.0742C3.46875 17.3242 3.59245 18.5221 3.83984 19.668C4.08724 20.8138 4.4388 21.888 4.89453 22.8906C5.36328 23.8802 5.92969 24.7852 6.59375 25.6055C7.27083 26.4128 8.03255 27.1094 8.87891 27.6953C9.72526 28.2682 10.6497 28.7174 11.6523 29.043C12.668 29.3555 13.7422 29.5117 14.875 29.5117C15.6953 29.5117 16.4375 29.4727 17.1016 29.3945C17.7786 29.3164 18.4167 29.1797 19.0156 28.9844C19.6146 28.776 20.207 28.4961 20.793 28.1445C21.3789 27.7799 22.0039 27.3177 22.668 26.7578L23.4688 27.6758C22.7005 28.2487 21.9583 28.7305 21.2422 29.1211C20.526 29.5117 19.7904 29.8307 19.0352 30.0781C18.293 30.3385 17.5052 30.5208 16.6719 30.625C15.8385 30.7422 14.9206 30.8008 13.918 30.8008C11.9388 30.8008 10.1029 30.4427 8.41016 29.7266C6.73047 29.0104 5.27865 28.0013 4.05469 26.6992C2.83073 25.3841 1.8737 23.8021 1.18359 21.9531C0.49349 20.0911 0.148438 18.0273 0.148438 15.7617C0.148438 13.444 0.526042 11.3607 1.28125 9.51172C2.04948 7.64974 3.10417 6.06771 4.44531 4.76562C5.78646 3.46354 7.36849 2.46745 9.19141 1.77734C11.0143 1.07422 12.987 0.722656 15.1094 0.722656C17.7917 0.722656 20.3568 1.38672 22.8047 2.71484C22.388 4.82422 21.7435 6.78385 20.8711 8.59375L20.3633 8.32031C20.5195 7.36979 20.5977 6.42578 20.5977 5.48828C20.5977 4.65495 20.5326 4.0625 20.4023 3.71094ZM50.1211 0.800781C54.4701 0.800781 57.8164 2.17448 60.1602 4.92188C62.5039 7.66927 63.6758 11.4714 63.6758 16.3281C63.6758 18.3854 63.3112 20.319 62.582 22.1289C61.8529 23.9388 60.8698 25.4753 59.6328 26.7383C58.3958 28.0013 56.9375 28.9974 55.2578 29.7266C53.5911 30.4427 51.8398 30.8008 50.0039 30.8008C48.0768 30.8008 46.2865 30.4622 44.6328 29.7852C42.9792 29.0951 41.5404 28.1185 40.3164 26.8555C39.1055 25.5924 38.1549 24.0039 37.4648 22.0898C36.7747 20.1628 36.4297 18.0273 36.4297 15.6836C36.4297 13.6133 36.7943 11.6536 37.5234 9.80469C38.2656 7.95573 39.2487 6.38021 40.4727 5.07812C41.7096 3.76302 43.168 2.72135 44.8477 1.95312C46.5273 1.1849 48.2852 0.800781 50.1211 0.800781ZM39.7109 15.4883C39.7109 17.4023 39.9128 19.1602 40.3164 20.7617C40.7331 22.3503 41.2865 23.6914 41.9766 24.7852C42.6667 25.8789 43.474 26.8034 44.3984 27.5586C45.3359 28.3138 46.319 28.8672 47.3477 29.2188C48.3763 29.5573 49.444 29.7266 50.5508 29.7266C52.1523 29.7266 53.5846 29.375 54.8477 28.6719C56.1237 27.9688 57.1589 27.0117 57.9531 25.8008C58.7474 24.5768 59.3529 23.1771 59.7695 21.6016C60.1862 20.026 60.3945 18.3333 60.3945 16.5234C60.3945 14.1667 60.0951 12.0443 59.4961 10.1562C58.9102 8.26823 58.1159 6.74479 57.1133 5.58594C56.1107 4.41406 54.9714 3.52214 53.6953 2.91016C52.4323 2.29818 51.0911 1.99219 49.6719 1.99219C48.0703 1.99219 46.625 2.36328 45.3359 3.10547C44.0599 3.83464 43.0182 4.82422 42.2109 6.07422C41.4036 7.32422 40.7852 8.75651 40.3555 10.3711C39.9258 11.9727 39.7109 13.6784 39.7109 15.4883ZM83.6094 3.96484V28.2812C84.3125 28.3724 84.9896 28.444 85.6406 28.4961C86.2917 28.5352 86.9297 28.5547 87.5547 28.5547C89.7552 28.5547 91.7279 28.2747 93.4727 27.7148C95.2174 27.1419 96.6953 26.2826 97.9062 25.1367C99.1172 23.9779 100.042 22.5391 100.68 20.8203C101.331 19.0885 101.656 17.0573 101.656 14.7266C101.643 13.1901 101.448 11.8294 101.07 10.6445C100.693 9.45964 100.165 8.43099 99.4883 7.55859C98.8112 6.67318 98.0104 5.9375 97.0859 5.35156C96.1745 4.7526 95.1784 4.27083 94.0977 3.90625C93.0299 3.52865 91.8971 3.26172 90.6992 3.10547C89.5143 2.94922 88.3099 2.87109 87.0859 2.87109C86.5 2.87109 85.9141 2.89062 85.3281 2.92969C84.7422 2.96875 84.1432 3.02083 83.5312 3.08594C83.5573 3.26823 83.5768 3.4375 83.5898 3.59375C83.6029 3.73698 83.6094 3.86068 83.6094 3.96484ZM77.0859 2.44141C78.2188 2.29818 79.2344 2.17448 80.1328 2.07031C81.0312 1.95312 81.9036 1.85547 82.75 1.77734C83.5964 1.69922 84.4688 1.64062 85.3672 1.60156C86.2656 1.5625 87.2812 1.54297 88.4141 1.54297C89.3906 1.54297 90.2826 1.56901 91.0898 1.62109C91.8971 1.67318 92.6589 1.76432 93.375 1.89453C94.1042 2.01172 94.8138 2.17448 95.5039 2.38281C96.207 2.57812 96.9427 2.81901 97.7109 3.10547C98.7396 3.49609 99.6836 4.02344 100.543 4.6875C101.415 5.33854 102.164 6.13932 102.789 7.08984C103.414 8.04036 103.896 9.14714 104.234 10.4102C104.586 11.6732 104.762 13.112 104.762 14.7266C104.749 16.6406 104.501 18.3464 104.02 19.8438C103.538 21.3411 102.867 22.6562 102.008 23.7891C101.148 24.9219 100.126 25.8854 98.9414 26.6797C97.7695 27.474 96.4935 28.1185 95.1133 28.6133C93.7331 29.1081 92.2747 29.4661 90.7383 29.6875C89.2018 29.9089 87.6458 30.0195 86.0703 30.0195C85.9401 30.0195 85.5104 30.0195 84.7812 30.0195C84.0651 30.0326 83.2969 30.0716 82.4766 30.1367C81.6562 30.2018 80.9401 30.2734 80.3281 30.3516L80.2109 30.1562C80.4714 29.7786 80.6016 29.0885 80.6016 28.0859V7.51953C80.6016 6.66016 80.5625 5.94401 80.4844 5.37109C80.4062 4.78516 80.263 4.31641 80.0547 3.96484C79.8464 3.61328 79.5534 3.36589 79.1758 3.22266C78.7982 3.06641 78.4401 2.98828 78.1016 2.98828C77.763 2.98828 77.5482 2.98828 77.457 2.98828C77.3659 2.98828 77.2682 2.99479 77.1641 3.00781L77.0859 2.44141ZM124.695 28.8086L131.57 28.5938C132.521 28.5677 133.322 28.457 133.973 28.2617C134.624 28.0664 135.184 27.793 135.652 27.4414C136.121 27.0768 136.531 26.6341 136.883 26.1133C137.234 25.5794 137.586 24.9674 137.938 24.2773L138.504 24.5117L136.57 29.7266L136.258 30H122.059C121.811 29.4661 121.688 28.8281 121.688 28.0859V7.32422C121.688 6.46484 121.648 5.76172 121.57 5.21484C121.492 4.65495 121.349 4.21224 121.141 3.88672C120.932 3.54818 120.639 3.3138 120.262 3.18359C119.897 3.05339 119.422 2.98828 118.836 2.98828C118.745 2.98828 118.647 2.98828 118.543 2.98828C118.452 2.98828 118.354 2.99479 118.25 3.00781L118.172 2.44141C121.883 1.85547 125.971 1.5625 130.438 1.5625C132.716 1.5625 135.105 1.64062 137.605 1.79688L137.742 2.12891L135.887 6.99219L135.262 6.79688C135.366 6.30208 135.444 5.84635 135.496 5.42969C135.548 5.01302 135.574 4.60938 135.574 4.21875C135.574 3.8151 135.522 3.4375 135.418 3.08594C134.441 2.99479 133.478 2.92969 132.527 2.89062C131.59 2.83854 130.652 2.8125 129.715 2.8125C128.009 2.8125 126.336 2.89062 124.695 3.04688V14.082L135.379 13.4961L135.574 13.7109L134.656 15.3125C134.07 15.2865 133.478 15.2669 132.879 15.2539C132.28 15.2409 131.668 15.2344 131.043 15.2344C130.027 15.2344 128.992 15.2539 127.938 15.293C126.883 15.332 125.802 15.3841 124.695 15.4492V28.8086ZM157.891 17.5195H148.691V16.8359C149.876 16.3021 150.944 16.0352 151.895 16.0352H161.094V16.7188C159.961 17.2526 158.893 17.5195 157.891 17.5195ZM175.559 1.67969L183.43 13.8867C187.271 7.75391 189.217 4.62891 189.27 4.51172C189.582 3.78255 189.517 3.24219 189.074 2.89062C188.645 2.53906 187.857 2.3112 186.711 2.20703L186.633 1.83594C188.977 1.61458 190.721 1.67969 191.867 2.03125C191.971 2.08333 192.036 2.16146 192.062 2.26562C192.089 2.35677 192.082 2.44141 192.043 2.51953C191.77 3.06641 191.398 3.73047 190.93 4.51172C190.461 5.29297 188.215 8.80208 184.191 15.0391L191.594 26.4062C191.932 26.9141 192.284 27.3568 192.648 27.7344C193.013 28.099 193.41 28.4049 193.84 28.6523C194.283 28.8997 194.66 29.0885 194.973 29.2188C195.285 29.349 195.708 29.5052 196.242 29.6875V30.0781C193.612 29.9219 191.665 30.026 190.402 30.3906L190.109 30.2344C190.161 29.7135 189.947 29.0885 189.465 28.3594L181.789 16.5625L174.27 27.6367C173.905 28.1576 173.931 28.5807 174.348 28.9062C174.777 29.2188 175.715 29.5182 177.16 29.8047L177.082 30.1562C174.803 29.987 172.948 29.9349 171.516 30C171.424 29.9089 171.346 29.7786 171.281 29.6094L180.949 15.2734L175.031 6.15234C174.562 5.48828 174.159 4.98698 173.82 4.64844C173.495 4.29688 173.169 4.04948 172.844 3.90625C172.531 3.75 172.193 3.67188 171.828 3.67188C171.477 3.65885 171.04 3.65885 170.52 3.67188V3.32031C171.001 3.07292 171.451 2.85156 171.867 2.65625C172.297 2.44792 172.714 2.27214 173.117 2.12891C173.521 1.98568 173.918 1.875 174.309 1.79688C174.712 1.71875 175.129 1.67969 175.559 1.67969ZM213.852 17.5195H204.652V16.8359C205.837 16.3021 206.905 16.0352 207.855 16.0352H217.055V16.7188C215.922 17.2526 214.854 17.5195 213.852 17.5195ZM235.387 14.8047V14.1602C236.689 14.0169 237.802 13.7565 238.727 13.3789C239.651 13.0013 240.413 12.5195 241.012 11.9336C241.611 11.3477 242.047 10.6576 242.32 9.86328C242.607 9.06901 242.75 8.18359 242.75 7.20703C242.711 6.42578 242.594 5.76823 242.398 5.23438C242.216 4.70052 241.904 4.27083 241.461 3.94531C241.018 3.60677 240.426 3.36589 239.684 3.22266C238.954 3.06641 238.023 2.98828 236.891 2.98828C236.474 2.98828 236.031 3.0013 235.562 3.02734C235.107 3.04036 234.612 3.0599 234.078 3.08594C234.156 3.39844 234.195 3.73047 234.195 4.08203V26.4844C234.195 27.0182 234.241 27.474 234.332 27.8516C234.436 28.2292 234.605 28.5482 234.84 28.8086C235.074 29.069 235.387 29.2839 235.777 29.4531C236.181 29.6094 236.682 29.7396 237.281 29.8438L237.105 30.3125C236.311 30.2083 235.628 30.1302 235.055 30.0781C234.482 30.026 234.007 30 233.629 30C233.277 30 232.874 30.026 232.418 30.0781C231.962 30.1302 231.461 30.2083 230.914 30.3125L230.797 30.1172C231.057 29.7396 231.188 29.0495 231.188 28.0469V7.51953C231.188 6.66016 231.148 5.94401 231.07 5.37109C230.992 4.78516 230.849 4.31641 230.641 3.96484C230.432 3.61328 230.139 3.36589 229.762 3.22266C229.384 3.06641 228.714 2.99479 227.75 3.00781L227.672 2.44141C228.544 2.32422 229.312 2.22005 229.977 2.12891C230.654 2.03776 231.292 1.95964 231.891 1.89453C232.503 1.81641 233.102 1.7513 233.688 1.69922C234.286 1.64714 234.859 1.60807 235.406 1.58203C235.953 1.54297 236.389 1.51693 236.715 1.50391C237.053 1.49089 237.372 1.48438 237.672 1.48438C238.857 1.48438 239.951 1.57552 240.953 1.75781C241.969 1.92708 242.841 2.23307 243.57 2.67578C244.312 3.10547 244.885 3.69141 245.289 4.43359C245.706 5.17578 245.914 6.11328 245.914 7.24609C245.914 8.09245 245.725 8.89323 245.348 9.64844C244.983 10.4036 244.482 11.0938 243.844 11.7188C243.219 12.3438 242.483 12.8971 241.637 13.3789C240.803 13.8477 239.911 14.2253 238.961 14.5117V14.7266L246.91 26.0742C247.6 27.0768 248.492 27.8516 249.586 28.3984C250.654 28.8542 251.298 29.1211 251.52 29.1992C251.754 29.2773 252.021 29.3685 252.32 29.4727V29.8438C250.016 29.8438 248.082 30.0846 246.52 30.5664L246.227 30.3906C246.227 30.2083 246.116 29.9414 245.895 29.5898C245.673 29.2253 245.4 28.8216 245.074 28.3789C244.762 27.9232 244.195 27.1094 243.375 25.9375C242.555 24.7526 239.892 21.0417 235.387 14.8047ZM274.09 2.92969C274.533 2.65625 275.04 2.13542 275.613 1.36719H275.809L286.57 27.2852C287.052 28.444 288.035 29.2578 289.52 29.7266V30.0781C288.673 29.987 287.658 29.9674 286.473 30.0195C285.288 30.0846 284.24 30.1953 283.328 30.3516L283.172 30.1562C283.432 29.8177 283.491 29.2513 283.348 28.457C283.217 27.6628 282.82 26.4583 282.156 24.8438L278.934 16.7578C275.105 16.6927 271.941 16.7057 269.441 16.7969L264.93 27.2852C264.656 27.8841 264.754 28.3854 265.223 28.7891C265.704 29.1927 266.642 29.5312 268.035 29.8047L267.957 30.1562C265.691 29.987 263.842 29.9349 262.41 30C262.332 29.9219 262.247 29.7917 262.156 29.6094L274.09 2.92969ZM269.969 15.6445C271.857 15.6966 274.682 15.6966 278.445 15.6445L274.363 5.44922L269.969 15.6445ZM324.16 3.92578V26.4844C324.16 27.5391 324.375 28.3073 324.805 28.7891C325.234 29.2708 326.048 29.6224 327.246 29.8438L327.09 30.3125C325.645 30.1172 324.544 30.013 323.789 30C323.034 29.987 322.07 30.0911 320.898 30.3125L320.762 30.1172C321.035 29.7396 321.172 29.0495 321.172 28.0469V15.1953C315.43 15.0651 310.443 15.0651 306.211 15.1953V28.0078C306.211 28.9323 306.413 29.5964 306.816 30L306.699 30.1953C304.993 29.9349 303.34 29.9609 301.738 30.2734L301.602 30.0781C302.266 29.4922 302.695 28.9648 302.891 28.4961C303.099 28.0273 303.203 27.3438 303.203 26.4453V7.51953C303.203 5.68359 302.982 4.44661 302.539 3.80859C302.109 3.17057 301.185 2.90365 299.766 3.00781L299.688 2.63672C301.836 1.9987 303.874 1.67969 305.801 1.67969C306.074 2.36979 306.211 3.11849 306.211 3.92578V13.8086C311.172 14.0039 316.159 14.0039 321.172 13.8086V7.51953C321.172 5.68359 320.951 4.44661 320.508 3.80859C320.065 3.17057 319.141 2.90365 317.734 3.00781L317.656 2.63672C319.805 1.9987 321.842 1.67969 323.77 1.67969C324.03 2.39583 324.16 3.14453 324.16 3.92578ZM346.184 3.92578V21.7578C346.184 23.1901 346.32 24.388 346.594 25.3516C346.867 26.3021 347.245 27.0638 347.727 27.6367C348.221 28.2096 348.807 28.6198 349.484 28.8672C350.174 29.1016 350.93 29.2188 351.75 29.2188C352.531 29.2188 353.339 29.1146 354.172 28.9062C355.018 28.6849 355.858 28.3854 356.691 28.0078C357.538 27.6172 358.358 27.1615 359.152 26.6406C359.96 26.1068 360.715 25.5339 361.418 24.9219V7.51953C361.418 6.66016 361.379 5.94401 361.301 5.37109C361.223 4.78516 361.079 4.31641 360.871 3.96484C360.663 3.61328 360.37 3.36589 359.992 3.22266C359.615 3.06641 359.211 2.98828 358.781 2.98828C358.352 2.98828 358.085 2.99479 357.98 3.00781L357.902 2.63672C360.025 1.9987 362.062 1.67969 364.016 1.67969C364.289 2.36979 364.426 3.11849 364.426 3.92578V26.4844C364.426 27.0182 364.471 27.474 364.562 27.8516C364.667 28.2292 364.836 28.5482 365.07 28.8086C365.305 29.069 365.617 29.2839 366.008 29.4531C366.411 29.6094 366.913 29.7396 367.512 29.8438L367.336 30.3125C366.555 30.2083 365.878 30.1302 365.305 30.0781C364.732 30.026 364.25 30 363.859 30C363.495 30 363.085 30.026 362.629 30.0781C362.186 30.1302 361.691 30.2083 361.145 30.3125L361.027 30.1172C361.288 29.7396 361.418 29.0495 361.418 28.0469V26.4453C359.27 27.9818 357.323 29.0951 355.578 29.7852C353.846 30.4622 352.225 30.8008 350.715 30.8008C349.816 30.8008 348.918 30.6966 348.02 30.4883C347.121 30.2799 346.314 29.9219 345.598 29.4141C344.882 28.9062 344.296 28.2357 343.84 27.4023C343.397 26.556 343.176 25.5013 343.176 24.2383V7.51953C343.176 6.66016 343.137 5.94401 343.059 5.37109C342.98 4.78516 342.837 4.31641 342.629 3.96484C342.421 3.61328 342.128 3.36589 341.75 3.22266C341.372 3.06641 340.969 2.98828 340.539 2.98828C340.109 2.98828 339.842 2.99479 339.738 3.00781L339.66 2.63672C341.783 1.9987 343.827 1.67969 345.793 1.67969C346.053 2.42188 346.184 3.17057 346.184 3.92578ZM386.449 28.8086L392.934 28.5938C393.884 28.5677 394.691 28.4635 395.355 28.2812C396.02 28.0859 396.592 27.7865 397.074 27.3828C397.556 26.9661 397.947 26.5365 398.246 26.0938C398.559 25.638 398.904 25.0326 399.281 24.2773L399.848 24.5117L397.934 29.7266L397.602 30H383.812C383.565 29.4531 383.441 28.8151 383.441 28.0859V7.51953C383.441 5.68359 383.22 4.44661 382.777 3.80859C382.348 3.17057 381.423 2.90365 380.004 3.00781L379.926 2.63672C382.074 1.9987 384.118 1.67969 386.059 1.67969C386.319 2.39583 386.449 3.14453 386.449 3.92578V28.8086Z" fill="#EC1CE4"/>
</svg>
